<?xml version="1.0" encoding="UTF-8"?>
<svg id="Capa_1" data-name="Capa 1" xmlns="http://www.w3.org/2000/svg" viewBox="0 0 1188.53 1080">
  <defs>
    <style>
      .cls-1 {    
        stroke-width: 0px;
        fill: #0f0f0f;
      }
    </style>
  </defs>
  <path class="cls-1" d="M597.37,1080.37c-194.34,0-388.69-.11-583.03.31-10.42.02-11.82-2.7-11.81-12.22.28-350.46.28-700.93,0-1051.39,0-9.52,1.4-12.22,11.81-12.21,388.69.36,777.38.35,1166.06.02,9.8,0,11.13,2.4,11.13,11.5-.28,350.92-.28,701.85,0,1052.77,0,9.11-1.33,11.52-11.13,11.5-194.34-.38-388.69-.29-583.03-.29ZM781.3,748.7c20.36.17,37.14-13.03,42.6-32.41,6.27-22.24-5.9-36.53-20.04-50.59-98.2-97.67-196.28-195.47-294.41-293.22-21.2-21.12-42.2-42.45-63.73-63.22-15.3-14.77-33.28-17.69-50.62-9.45-16.77,7.97-26.14,24.69-24.62,43.95,1.18,15.02,11.05,24.74,20.9,34.54,76.95,76.52,153.88,153.06,230.81,229.6,40.8,40.59,81.61,81.17,122.34,121.83,10.29,10.27,21.03,19.39,36.77,18.98ZM413.7,471.82c-19.49-.08-33.5,9.05-40.82,26.59-6.99,16.75-2.86,34.39,11.81,48.98,62.91,62.58,125.85,125.14,188.86,187.62,18.46,18.31,45.15,18.91,62.85,1.74,17.69-17.16,17.32-44.25-1.24-62.76-63.16-63.01-126.45-125.88-189.66-188.85-8.84-8.8-18.93-14.31-31.8-13.31ZM643.2,428.9c-.34,17.71,4.87,28.47,14.18,37.66,31.41,31.01,62.55,62.31,94.07,93.22,17.53,17.19,45.64,17.46,61.83,1.23,17.95-18.01,17.82-43.79-.7-62.68-18.67-19.04-37.29-38.16-56.7-56.43-7.04-6.62-5.78-10.1.28-15.99,19.76-19.24,39.3-38.72,58.38-58.64,9.65-10.07,14.11-22.51,10.57-36.67-8.89-35.54-47.15-47.45-73.71-22.09-32.91,31.44-64.77,63.98-97,96.13-7.89,7.87-10.99,17.84-11.19,24.26ZM413.47,645.53c-34.99-.31-56.63,32.95-40.69,62.26,9.02,16.59,23.03,30.1,39.63,39.26,18.41,10.16,41.75,3.39,53.99-13.51,12.12-16.73,11.05-38.97-3.11-54.56-7.1-7.82-14.78-15.12-22.45-22.41-8-7.6-17.62-11.4-27.38-11.04ZM474.51,837.62c0,8.16-.35,14.87.13,21.52.31,4.3-2.78,11.24,5.96,10.99,7.54-.22,5.2-6.3,5.29-10.32.27-12.41.28-24.84-.04-37.26-.09-3.6,2.34-8.92-3.98-10.08-5.94-1.08-10.14.36-13.16,6.73-4.14,8.74-6.92,18.45-14.48,26.47-4.89-10.04-9.62-18.96-13.59-28.21-2.45-5.7-6.8-5.39-11.37-5.02-5.62.46-4.38,5.07-4.41,8.43-.13,14.26-.05,28.52.03,42.78.02,3.33.29,6.46,4.95,6.61,4.81.15,6.49-2.08,6.4-6.64-.16-7.89-.04-15.78-.04-23.67,5.14,4.17,7.23,8.64,9.7,12.89,2.17,3.73,2.59,9.06,8.87,9.21,7.02.18,7.25-5.82,9.82-9.82,2.82-4.39,3.34-10.31,9.94-14.6ZM737.17,847.36c-7.21-11.04-13.72-20.37-19.5-30.13-2.96-5-7.02-5.72-11.64-4.63-5.08,1.2-3.32,5.9-3.37,9.22-.19,12.86-.17,25.72.01,38.58.06,4.23-1.52,10.03,6,9.74,7.57-.3,5.12-6.3,5.31-10.32.36-7.56.1-15.15.1-22.73,9.6,9.04,16.11,18.79,22.26,28.76,2.65,4.3,6.33,4.75,10.63,4.31,5.72-.58,4.27-5.08,4.3-8.4.14-13.78.02-27.56.06-41.33.01-4.37.06-8.3-6.2-8.17-6.5.14-5.49,4.73-5.81,8.7-.65,8.04,1.42,16.31-2.15,26.4ZM992.14,841.23c0,5.98-.42,12,.14,17.92.4,4.18-3.2,11.35,5.77,10.94,7.65-.35,5.41-6.85,4.79-10.46-2.32-13.47,4.58-14.76,15.55-14.46,14.41.4,7.42,10.73,8.88,16.96.93,3.99-.16,8.54,6.35,8.1,5.51-.37,5.14-4.2,5.15-7.85.04-13.34.11-26.68-.09-40.01-.06-4.14,2-10-5.66-9.98-7.71.02-5.49,6.03-5.56,10.04-.13,7.54,1.14,14.33-10.72,14.32-10.7-.01-15.18-2.68-13.88-13.81.43-3.68,2.94-10.1-4.77-10.49-8.98-.46-5.45,6.66-5.83,10.86-.54,5.93-.14,11.95-.12,17.93ZM345.05,870.19c6.98.3,4.19-3.92,3.09-7.07-5.12-14.69-10.45-29.31-15.49-44.03-1.47-4.3-3.26-6.93-8.52-6.98-5.9-.06-7.78,3.01-9.39,7.85-4.46,13.46-9.49,26.74-13.93,40.21-1.03,3.13-6.09,7.59.88,9.84,4.53,1.47,8.32-.5,9.16-5.53,1.34-8.03,6.84-8,13.2-8.16,6.71-.17,11.73.83,12.96,8.49.73,4.56,3.79,5.89,8.03,5.38ZM554.95,865.3c-5.34-15.09-10.82-30.13-15.95-45.3-1.62-4.78-3.42-7.78-9.33-7.93-6.38-.16-7.57,4.05-9.08,8.27-4.96,13.77-9.93,27.54-14.45,41.46-.76,2.35-4.79,6.18.02,7.95,3.59,1.32,9.05,1.88,10.05-3.8,1.61-9.12,7.5-9.43,14.96-9.72,7.6-.3,10.66,3.03,12.23,9.62,1.12,4.67,4.96,4.64,8.8,4.27,3.27-.32,3.32-2.36,2.74-4.83ZM601.2,870.35c5.26.51,11.51-.65,16.5-5.36,3.51-3.32,9.36-7.54,5.27-12.23-3.66-4.21-8.45-.82-12.57,3.35-6.88,6.95-15.01,6.18-21.76-.73-6.46-6.61-5.9-23.28.96-29.22,6.78-5.87,14.55-6.46,20.74.46,3.96,4.43,9.27,7.61,12.55,3.66,4.31-5.18-1.57-10.18-5.82-13.11-10.35-7.15-21.64-7.35-32.35-.94-10.82,6.48-15.21,22.13-10.69,35.59,4.12,12.28,12.51,18.81,27.16,18.54ZM948.44,870.34c3.79.62,9.22-.26,13.91-3.49,4.92-3.39,11.44-8.61,7.76-13.92-3.51-5.08-8.85-.22-13.29,3.86-6.45,5.94-14.36,5.46-20.88-.88-6.53-6.35-6.72-23.1-.07-29.23,6.97-6.43,15.21-7.4,21.66.26,4.07,4.83,9.55,6.84,12.63,3.34,3.7-4.2-1.47-9-5.01-12.31-7.69-7.18-24.35-8.02-33.51-2.02-10.08,6.61-15.08,22.34-10.72,35.78,3.95,12.17,12.36,18.9,27.5,18.62ZM644.58,840.3c0,3.22,0,6.44,0,9.66,0,20.35.02,20.74,20.45,20.09,5.65-.18,16.2,4.18,16.33-3.53.17-9.71-10.79-3.29-16.51-5.28-.41-.14-.92-.07-1.37-.03-5.38.48-7.39-2.18-7.34-7.35.04-4.87,1.42-7.32,6.99-7.89,5.6-.58,15.85,3.94,15.72-4.58-.12-8.07-10.29-3.45-15.9-4.05-5.57-.61-7-2.92-6.8-7.89.19-4.55.73-8.31,6.65-8.15,4.59.13,9.2.02,13.8-.18,2.83-.12,5.56-.7,5.64-4.45.09-3.95-2.82-3.9-5.58-4.39-27.7-4.99-32.02-1.43-32.09,26.62,0,.46,0,.92,0,1.38ZM862.87,840.6q.03,31.38,29.16,29.7c.92-.05,1.84.01,2.76-.05,2.74-.2,5.71-.15,5.83-4.08.1-3.64-2.32-4.66-5.32-4.77-4.6-.16-9.21-.33-13.81-.19-5.64.18-7.04-2.89-6.91-7.82.11-4.23,1.31-6.38,6.06-7.37,5.86-1.22,16.71,4.76,16.58-5.02-.11-7.89-10.59-2.93-16.3-3.63-5.87-.72-6.49-3.66-6.51-8.25-.02-4.93,1.56-7.96,7.09-7.79,4.14.13,8.29.07,12.43-.09,3.22-.12,6.9-.1,6.65-4.83-.25-4.83-4.2-3.83-7.22-4.13q-30.51-3.09-30.48,26.94c0,.46,0,.92,0,1.38ZM155.05,840.59c-.05,29.71-.04,30.07,20.52,29.47,5.65-.17,16.18,4.14,16.3-3.58.16-9.7-10.79-3.26-16.49-5.26-.41-.14-.91-.06-1.37-.03-5.73.43-8.26-1.88-8.15-7.94.1-5.57,2.85-6.46,7.61-7.24,5.62-.93,15.82,4.27,15.92-4.34.09-8.32-10.06-3.8-15.56-4.29-5.74-.51-8.15-2.01-8.03-8.06.12-5.9,2.33-8.34,8.2-7.99,4.11.24,8.25.04,12.38-.13,3.3-.13,6.73-.42,6.29-5.13-.36-3.84-3.47-3.39-6.12-3.78-29.08-4.28-31.46-2.26-31.49,26.93,0,.46,0,.92,0,1.38ZM816.65,845.47h.04c0,5.06-.21,10.13.07,15.17.23,4.19-1.48,9.9,6.15,9.59,6.74-.28,5.03-5.34,5.11-9.09.2-8.73.19-17.47.01-26.2-.16-7.72-.77-15.39,10.91-13.81,3.01.41,5.44-1.21,5.35-4.71-.1-3.76-2.96-4.11-5.83-4.11-10.57-.02-21.15-.04-31.72.02-2.84.02-5.64.37-5.6,4.28.03,3.63,2.42,4.85,5.41,4.54,10.82-1.1,10.34,6.1,10.11,13.3-.12,3.67-.02,7.35-.02,11.03ZM224.07,836.79c0-5.96.02-11.91,0-17.87-.01-3.3-.02-6.41-4.76-6.59-4.98-.19-6.25,2.33-6.19,6.71.12,8.7.01,17.41,0,26.12q-.02,26.32,26.41,25.06c3.2-.16,8.4,2.01,8.85-3.44.58-7.02-5.71-5.02-8.93-4.55-12.9,1.89-17.3-3.57-15.43-15.82.48-3.13.07-6.4.05-9.61ZM379.66,836.87h-.05c0-5.95.04-11.9-.02-17.85-.03-3.3-.17-6.49-4.82-6.69-4.66-.2-6.63,1.85-6.58,6.44.08,8.69-.02,17.39-.02,26.09,0,26.39,0,26.48,26.17,25.33,3.49-.15,9.7,2.38,9.36-4.27-.32-6.16-6.5-4.15-9.87-3.7-11.55,1.51-16-2.94-14.26-14.37.54-3.58.08-7.31.08-10.97Z"/>
  <path class="cls-1" d="M329.92,847.15c-4.1,1.32-8.02,1.81-12.16-.44,1.18-5.68,1.72-11.54,6.59-16.23,3.1,5.42,5.15,10.71,5.57,16.67Z"/>
  <path class="cls-1" d="M536.2,846.67c-4.06,2.29-10.57,2.79-11.48.54-2.39-5.88,1.67-11.45,4.81-17.13,4.42,5.09,5.33,10.89,6.67,16.59Z"/>
</svg>